<?xml version="1.0" encoding="UTF-8" standalone="no"?>
<!-- Created with Inkscape (http://www.inkscape.org/) -->

<svg
   version="1.1"
   id="svg1"
   width="390"
   height="390"
   viewBox="0 0 390 390"
   sodipodi:docname="https_www_millingtonvillagehall_org_uk_qrcode.svg"
   inkscape:version="1.3.2 (091e20e, 2023-11-25, custom)"
   xmlns:inkscape="http://www.inkscape.org/namespaces/inkscape"
   xmlns:sodipodi="http://sodipodi.sourceforge.net/DTD/sodipodi-0.dtd"
   xmlns="http://www.w3.org/2000/svg"
   xmlns:svg="http://www.w3.org/2000/svg">
  <defs
     id="defs1" />
  <sodipodi:namedview
     id="namedview1"
     pagecolor="#ffffff"
     bordercolor="#666666"
     borderopacity="1.0"
     inkscape:showpageshadow="2"
     inkscape:pageopacity="0.0"
     inkscape:pagecheckerboard="0"
     inkscape:deskcolor="#d1d1d1"
     showgrid="false"
     inkscape:zoom="2.8076923"
     inkscape:cx="194.82192"
     inkscape:cy="195"
     inkscape:window-width="2560"
     inkscape:window-height="1351"
     inkscape:window-x="2551"
     inkscape:window-y="-9"
     inkscape:window-maximized="1"
     inkscape:current-layer="g1" />
  <g
     inkscape:groupmode="layer"
     inkscape:label="Image"
     id="g1">
    <path
       style="fill:#000000"
       d="M 85,339 H 50 v -35 -35 h 35 35 v 35 35 z m 0,-10 h 25 V 304 279 H 85 60 v 25 25 z m 0,-10 H 70 v -15 -15 h 15 15 v 15 15 z m 50,20 h -5 v -5 -5 h 5 5 v -5 -5 h -5 -5 v -10 -10 h 5 5 v -5 -5 h -5 -5 v -20 -20 h -5 -5 v 5 5 h -5 -5 v -5 -5 H 100 90 v 5 5 H 75 60 v -5 -5 h 5 5 v -10 -10 h -5 -5 v 5 5 h -5 -5 v -5 -5 h 5 5 v -5 -5 h 15 15 v -5 -5 h 5 5 v 5 5 h 5 5 v -5 -5 h 10 10 v -5 -5 h 15 15 v 5 5 h -10 -10 v 5 5 h -5 -5 v 15 15 h 5 5 v 5 5 h 5 5 v -5 -5 h 10 10 v -5 -5 h -10 -10 v -10 -10 h 5 5 v 5 5 h 5 5 v -20 -20 h 5 5 v -10 -10 h -5 -5 v -10 -10 h -5 -5 v -10 -10 h -15 -15 v 5 5 h -15 -15 v 5 5 h 10 10 v 5 5 h 5 5 v 5 5 h 15 15 v 5 5 h -5 -5 v 5 5 h -5 -5 v -5 -5 h -5 -5 v 5 5 h -5 -5 v 5 5 H 105 90 v -5 -5 h -5 -5 v 10 10 H 65 50 v -10 -10 h 5 5 v -5 -5 h -5 -5 v -15 -15 h 5 5 v 5 5 h 10 10 v 5 5 h -5 -5 v 5 5 h 10 10 v -5 -5 h 5 5 v -5 -5 h -5 -5 v -5 -5 H 80 70 v -10 -10 h 10 10 v 5 5 h 5 5 v -5 -5 h 15 15 v -10 -10 h 5 5 V 99 89 h -5 -5 v -5 -5 h 5 5 v 5 5 h 5 5 v 5 5 h 5 5 v 10 10 h 5 5 v -5 -5 h 5 5 v 10 10 h -5 -5 v 5 5 h 5 5 v 10 10 h 15 15 v 5 5 h -5 -5 v 5 5 h 5 5 v 5 5 h 5 5 v 10 10 h -5 -5 v 15 15 h 10 10 v -5 -5 h 5 5 v 5 5 h 5 5 v 5 5 h 30 30 v -10 -10 h -5 -5 v -5 -5 h -5 -5 v 10 10 h -10 -10 v -5 -5 h 5 5 v -5 -5 h 5 5 v -5 -5 h -5 -5 v -10 -10 h -5 -5 v -5 -5 h 10 10 v 5 5 h 5 5 v 10 10 h 5 5 v 5 5 h 5 5 v -10 -10 h -5 -5 v -10 -10 h -5 -5 v -5 -5 h -20 -20 v 5 5 h -5 -5 v 5 5 h 5 5 v 10 10 h 5 5 v 5 5 h -5 -5 v 5 5 h -5 -5 v -10 -10 h -5 -5 v 5 5 h -5 -5 v -15 -15 h 5 5 v -5 -5 h 5 5 v -5 -5 h -5 -5 v -5 -5 h -10 -10 v -5 -5 h -5 -5 v -5 -5 h -5 -5 v 5 5 h -5 -5 V 124 99 h -10 -10 v -5 -5 h -5 -5 v -5 -5 h 5 5 V 69 59 h -5 -5 v -5 -5 h 5 5 v 5 5 h 10 10 v 5 5 h 15 15 v 5 5 h 5 5 v 5 5 h -5 -5 v 5 5 h -10 -10 v 10 10 h 5 5 v -5 -5 h 5 5 v 5 5 h 5 5 v -5 -5 h 5 5 V 94 79 h 5 5 V 69 59 h -5 -5 v 5 5 h -5 -5 v -5 -5 h 5 5 v -5 -5 h 10 10 v 15 15 h -5 -5 v 10 10 h 5 5 v 10 10 h -5 -5 v 5 5 h -5 -5 v 5 5 h 15 15 v -5 -5 h 5 5 v 5 5 h 10 10 v -5 -5 h 5 5 v 5 5 h -5 -5 v 15 15 h 10 10 v 5 5 h 10 10 v 10 10 h -5 -5 v 15 15 h -5 -5 v 15 15 h 10 10 v 5 5 h -5 -5 v 5 5 h 5 5 v 20 20 h -5 -5 v 10 10 h -5 -5 v -10 -10 h -5 -5 v 10 10 h -5 -5 v -10 -10 h 5 5 v -5 -5 h -10 -10 v 10 10 h -10 -10 v -5 -5 h 5 5 v -5 -5 h 5 5 v -5 -5 h -10 -10 v 5 5 h -5 -5 v 15 15 h -15 -15 v -5 -5 h 10 10 v -5 -5 h -10 -10 v -5 -5 h -5 -5 v 5 5 h -5 -5 v 10 10 h -10 -10 v -5 -5 h 5 5 v -5 -5 h 5 5 v -5 -5 h -5 -5 v -10 -10 h -10 -10 v 5 5 h 5 5 v 10 10 h -10 -10 v 5 5 h 5 5 v 5 5 h -15 -15 v -5 -5 h -5 -5 v 5 5 z m 190,-20 h 5 v -10 -10 h -10 -10 v -5 -5 h 10 10 v -5 -5 h -5 -5 v -5 -5 h -5 -5 v 10 10 h -5 -5 v 5 5 h 5 5 v 5 5 h 5 5 v 5 5 z M 160,309 h 10 v -15 -15 h 10 10 v -5 -5 h 5 5 v 10 10 h 5 5 v 5 5 h 5 5 v -5 -5 h 5 5 v 10 10 h 5 5 v -5 -5 h 5 5 v -10 -10 h -5 -5 v 5 5 h -5 -5 v -15 -15 h -5 -5 v 15 15 h -5 -5 v -15 -15 h -15 -15 v 5 5 h -5 -5 v 5 5 h -5 -5 v -5 -5 h -10 -10 v 10 10 h 5 5 v 10 10 z m 115,-20 h 15 v -15 -15 h -15 -15 v 15 15 z m 0,-10 h -5 v -5 -5 h 5 5 v 5 5 z m -30,-10 h 5 v -10 -10 h -5 -5 v 10 10 z M 115,249 h 5 v -5 -5 h -5 -5 v 5 5 z m 90,0 h 5 v -5 -5 h -5 -5 v 5 5 z M 85,239 h 5 v -5 -5 h -5 -5 v 5 5 z m 90,0 h 5 v -5 -5 h 10 10 v -5 -5 h -5 -5 v -10 -10 h 10 10 v -5 -5 h -15 -15 v 20 20 h -5 -5 v 5 5 z m -60,-10 h 5 v -5 -5 h -5 -5 v 5 5 z m -5,-40 h 10 v -5 -5 h 5 5 v -5 -5 h -5 -5 v -5 -5 h -5 -5 v 5 5 h 5 5 v 5 5 h -10 -10 v 5 5 z m 135,-30 h 5 v -5 -5 h -5 -5 v 5 5 z M 145,119 h 5 v -5 -5 h -5 -5 v 5 5 z m 100,0 h 5 v -5 -5 h -5 -5 v 5 5 z M 175,89 h 5 v -5 -5 h -5 -5 v 5 5 z m 20,0 h 5 v -5 -5 h -5 -5 v 5 5 z m 30,90 h -5 v -5 -5 h 5 5 v 5 5 z m 110,-10 h -5 v -5 -5 h -10 -10 v -5 -5 h 10 10 v -5 -5 h -5 -5 v -5 -5 h 10 10 v 10 10 h -5 -5 v 5 5 h 5 5 v 5 5 z M 145,149 h -5 v -5 -5 h 5 5 v 5 5 z M 55,139 h -5 v -5 -5 h 5 5 v 5 5 z M 85,119 H 50 V 84 49 h 35 35 v 35 35 z m 0,-10 h 25 V 84 59 H 85 60 v 25 25 z M 85,99 H 70 V 84 69 h 15 15 v 15 15 z m 220,20 H 270 V 84 49 h 35 35 v 35 35 z m 0,-10 h 25 V 84 59 h -25 -25 v 25 25 z m 0,-10 H 290 V 84 69 h 15 15 V 84 99 Z M 140,69 H 130 V 59 49 h 10 10 v 10 10 z m 75,-10 h -5 v -5 -5 h 5 5 v 5 5 z"
       id="path1" />
  </g>
</svg>
