<?xml version="1.0" encoding="UTF-8" standalone="no"?>
<!-- Created with Inkscape (http://www.inkscape.org/) -->

<svg
   width="183mm"
   height="108mm"
   viewBox="0 0 183 108"
   version="1.1"
   id="svg1"
   xml:space="preserve"
   inkscape:version="1.3.2 (091e20e, 2023-11-25, custom)"
   sodipodi:docname="logo_notext.svg"
   xmlns:inkscape="http://www.inkscape.org/namespaces/inkscape"
   xmlns:sodipodi="http://sodipodi.sourceforge.net/DTD/sodipodi-0.dtd"
   xmlns="http://www.w3.org/2000/svg"
   xmlns:svg="http://www.w3.org/2000/svg"><sodipodi:namedview
     id="namedview1"
     pagecolor="#ffffff"
     bordercolor="#666666"
     borderopacity="1.0"
     inkscape:showpageshadow="2"
     inkscape:pageopacity="0.0"
     inkscape:pagecheckerboard="0"
     inkscape:deskcolor="#d1d1d1"
     inkscape:document-units="mm"
     inkscape:zoom="0.97548401"
     inkscape:cx="397.2387"
     inkscape:cy="479.24927"
     inkscape:window-width="2560"
     inkscape:window-height="1351"
     inkscape:window-x="2551"
     inkscape:window-y="-9"
     inkscape:window-maximized="1"
     inkscape:current-layer="layer1" /><defs
     id="defs1" /><g
     inkscape:label="Layer 1"
     inkscape:groupmode="layer"
     id="layer1"><g
       id="g85"
       transform="matrix(1.0041016,0,0,1.0041016,-16.821313,-79.607124)"><path
         style="fill:#a9c795;fill-opacity:1"
         d="m 139.83075,137.90804 c -2.82199,-0.64259 -4.71245,-2.59917 -5.15899,-5.33943 -0.46729,-2.86762 0.5754,-5.17012 3.09008,-6.82358 0.9066,-0.59611 2.80338,-0.96872 4.12095,-0.80955 3.55919,0.42999 6.26112,3.86496 5.78862,7.35908 -0.24994,1.8483 -1.73845,4.0476 -3.32813,4.91736 -1.25851,0.68857 -3.21812,0.99087 -4.51253,0.69612 z"
         id="path59" /><path
         style="fill:#799562;fill-opacity:1"
         d="m 72.4428,137.59517 c -1.338895,-0.5527 -2.04952,-1.06522 -2.869799,-2.06978 -0.759865,-0.93056 -1.406989,-2.77887 -1.410898,-4.02979 -0.0047,-1.48864 0.721385,-3.3361 1.758642,-4.475 1.040131,-1.14206 1.851925,-1.61425 3.506614,-2.03965 1.979902,-0.509 4.149334,0.13469 5.8938,1.74876 2.189363,2.0257 2.656536,5.04197 1.221438,7.88613 -1.393831,2.76237 -5.217927,4.16898 -8.099797,2.97933 z"
         id="path58" /><path
         style="fill:#1e592d;fill-opacity:1"
         d="m 20.478569,141.33809 c -1.854147,-0.501 -2.902487,-1.86619 -2.706734,-3.52481 0.0594,-0.50328 0.277552,-1.15401 0.484786,-1.44606 0.218735,-0.30827 2.632565,-1.9327 5.754378,-3.87253 2.957674,-1.83783 5.856484,-3.6423 6.4418,-4.00993 0.585317,-0.36763 1.594433,-0.99882 2.242481,-1.40264 5.282748,-3.2919 6.755208,-4.20739 9.213823,-5.72866 1.541705,-0.95393 3.097426,-1.92626 3.457157,-2.16075 0.359731,-0.23448 1.873405,-1.18392 3.36372,-2.10986 1.490315,-0.92594 6.325664,-3.94324 10.745219,-6.70511 4.419555,-2.76186 9.128763,-5.69747 10.464908,-6.52356 1.336144,-0.8261 3.060051,-1.89878 3.830904,-2.38374 0.770852,-0.48497 2.284527,-1.43137 3.36372,-2.103131 6.546695,-4.075077 9.263072,-5.769291 10.838655,-6.760109 0.976413,-0.614026 3.877622,-2.423778 6.447131,-4.021671 2.569509,-1.597894 6.618233,-4.120804 8.997153,-5.606467 2.76836,-1.72887 4.506,-2.701206 4.82726,-2.701206 0.57613,0 1.06309,0.279855 6.91854,3.976096 2.36394,1.492238 6.82087,4.303187 9.90428,6.246553 3.08341,1.943366 6.11076,3.855092 6.72745,4.24828 0.61668,0.393188 1.41556,0.885334 1.77529,1.093657 0.35973,0.208323 1.21102,0.736646 1.89175,1.174051 1.10663,0.711063 4.05762,2.584274 7.0404,4.469067 0.58607,0.37032 1.94855,1.22309 3.02775,1.89503 1.07919,0.67194 5.40998,3.39641 9.62398,6.05438 4.21399,2.65797 9.80617,6.17847 12.42707,7.82334 2.6209,1.64487 7.58239,4.76602 11.02553,6.93589 3.44314,2.16987 6.95504,4.37886 7.80421,4.90885 9.60287,5.99347 10.76745,6.75945 11.1367,7.32497 0.17259,0.26434 0.36432,0.85046 0.42607,1.30248 0.33769,2.47236 -1.77914,4.0158 -5.25647,3.83265 -1.11346,-0.0587 -1.75076,-0.19721 -2.35092,-0.51112 -0.77934,-0.40764 -3.45839,-2.07936 -16.15111,-10.07819 -12.11365,-7.63391 -20.38788,-12.83352 -21.86419,-13.73966 -0.78222,-0.48012 -3.87491,-2.42933 -8.4093,-5.30007 -0.5139,-0.32536 -1.35483,-0.8571 -1.86873,-1.18166 -0.5139,-0.32456 -1.60711,-1.01853 -2.42935,-1.54215 -0.82225,-0.52362 -2.20978,-1.39553 -3.08341,-1.93758 -2.21894,-1.37673 -3.65462,-2.27983 -9.53055,-5.99507 -4.90559,-3.101725 -6.87464,-4.33888 -9.15679,-5.753224 -0.56529,-0.350334 -2.95469,-1.854972 -5.30977,-3.343639 l -4.28197,-2.706668 -0.67017,0.404298 c -0.3686,0.222363 -1.09065,0.674943 -1.60455,1.005733 -0.5139,0.33079 -2.74237,1.72268 -4.95215,3.093089 -4.544105,2.81806 -4.543074,2.817418 -13.081134,8.140101 -3.443142,2.14648 -7.101188,4.42473 -8.128991,5.06278 -1.816975,1.12796 -20.895219,13.03105 -27.657257,17.25562 -1.850047,1.15581 -4.246697,2.65149 -5.325891,3.32373 -1.079194,0.67224 -4.569054,2.84838 -7.755245,4.83587 -3.18619,1.98749 -6.886283,4.29086 -8.222427,5.11859 -1.336145,0.82773 -3.096478,1.92698 -3.911852,2.44276 -0.815374,0.51579 -1.858879,1.05147 -2.318899,1.1904 -1.030048,0.31109 -3.005427,0.30683 -4.174255,-0.009 z"
         id="path57" /><path
         style="fill:#a9c795;fill-opacity:1"
         d="m 112.69817,173.62019 c 0.81539,-3.40404 3.47306,-12.14805 4.60256,-15.14293 0.29175,-0.77355 0.80241,-2.16595 1.1348,-3.09422 0.3324,-0.92827 0.88845,-2.29436 1.23566,-3.03577 0.34721,-0.74141 0.63129,-1.39969 0.63129,-1.46284 0,-0.20326 1.19378,-3.18673 1.31395,-3.28382 0.0638,-0.0516 0.31911,-0.6001 0.56727,-1.21894 0.24816,-0.61884 0.50839,-1.16821 0.57829,-1.22081 0.0699,-0.0526 0.18492,-0.32687 0.2556,-0.60947 0.0707,-0.2826 0.20349,-0.51383 0.29513,-0.51383 0.0916,0 0.16661,-0.11738 0.16661,-0.26085 0,-0.14347 0.52239,-1.30381 1.16086,-2.57852 0.63847,-1.27471 1.1757,-2.40992 1.19384,-2.52268 0.0181,-0.11276 0.25623,-0.5599 0.52908,-0.99364 0.27286,-0.43374 0.57707,-0.97439 0.67604,-1.20145 0.099,-0.22705 0.4707,-0.91915 0.82608,-1.53799 0.35539,-0.61884 0.8978,-1.60068 1.20537,-2.18186 0.70821,-1.33826 1.12859,-1.78815 1.34734,-1.44192 0.0863,0.13655 0.15814,0.44054 0.15972,0.67555 0.005,0.72714 1.04829,2.54991 2.01603,3.52183 2.75973,2.77166 8.41639,4.38728 15.36605,4.38875 1.69588,3.6e-4 3.88229,-0.0821 4.85871,-0.18325 2.363,-0.24478 7.01094,-0.91178 7.40138,-1.06214 0.38548,-0.14844 0.27533,0.31379 -0.12444,0.52222 -0.14806,0.0772 -1.02603,0.51435 -1.95105,0.97147 -0.92502,0.45711 -1.97619,1.01148 -2.33592,1.23193 -0.35973,0.22045 -0.77357,0.40112 -0.91965,0.40151 -0.14608,3.9e-4 -0.41152,0.13322 -0.58987,0.29519 -0.17835,0.16197 -0.91694,0.60501 -1.64132,0.98453 -2.3169,1.21387 -8.15961,4.75446 -10.61489,6.43244 -0.73626,0.50317 -1.39153,0.91485 -1.45616,0.91485 -0.0646,0 -0.21907,0.0876 -0.3432,0.1946 -0.28056,0.24188 -2.13577,1.57614 -3.92145,2.8203 -2.52943,1.76235 -5.40719,3.95683 -6.93236,5.28636 -0.50088,0.43663 -1.00543,0.82763 -1.12124,0.86888 -0.1158,0.0412 -0.2526,0.12873 -0.30399,0.1944 -0.48742,0.62289 -3.97246,3.3797 -4.14062,3.2754 -0.12423,-0.0771 -0.16471,-0.0515 -0.0957,0.0605 0.0657,0.10669 -1.11276,1.36445 -2.61881,2.79502 -2.97093,2.82203 -7.53646,7.44092 -7.77695,7.86784 -0.25333,0.44972 -0.74985,0.32704 -0.63399,-0.15665 z"
         id="path56" /><path
         style="fill:#799562;fill-opacity:1"
         d="m 100.96109,172.02678 c -2.919433,-3.08602 -8.465009,-8.27641 -12.053337,-11.28134 -3.421443,-2.86517 -6.535681,-5.32577 -8.035555,-6.34899 -0.25695,-0.17529 -1.058421,-0.75305 -1.781045,-1.28391 -1.129315,-0.82963 -4.067634,-2.81587 -7.469186,-5.04901 -3.503569,-2.30012 -9.866119,-5.90783 -13.966601,-7.91938 -1.206469,-0.59185 -2.194561,-1.17144 -2.195762,-1.28797 -0.0016,-0.15463 0.363947,-0.1463 1.352649,0.0308 5.929087,1.06204 12.029995,1.29425 16.585011,0.63125 2.694571,-0.39221 6.10845,-1.36716 7.101188,-2.02799 0.256951,-0.17104 0.709418,-0.43358 1.005484,-0.58343 0.790903,-0.40029 2.104148,-1.61124 2.717454,-2.50578 0.294913,-0.43014 0.702135,-1.32449 0.904937,-1.98743 0.202802,-0.66295 0.447521,-1.23172 0.54382,-1.26393 0.0963,-0.0322 0.32266,0.21727 0.503024,0.5544 0.730004,1.36449 1.534001,2.73553 1.768669,3.01608 0.13682,0.16357 0.265324,0.40708 0.285565,0.54113 0.02024,0.13405 0.08888,0.32812 0.152521,0.43126 0.188204,0.305 1.69299,3.20704 2.917153,5.62586 1.284767,2.53857 3.777495,7.95219 3.777495,8.20385 0,0.0909 0.222042,0.64502 0.493427,1.23147 0.73177,1.58132 1.364894,3.22461 3.517606,9.13 0.0752,0.20629 0.25464,0.69322 0.39876,1.08209 0.14412,0.38886 0.26256,0.853 0.26319,1.03141 6.4e-4,0.17841 0.10969,0.53535 0.24234,0.7932 0.132653,0.25785 0.386823,0.97515 0.564823,1.59399 0.178,0.61885 0.56426,1.92686 0.85836,2.90669 0.29409,0.97984 0.80289,2.75198 1.13066,3.9381 0.32777,1.18612 0.63701,2.30426 0.6872,2.48476 0.19757,0.71051 -0.47341,0.21177 -2.26985,-1.68718 z"
         id="path55" /><path
         style="fill:#507436;fill-opacity:1"
         d="m 107.5808,185.24696 c -0.008,-0.43835 -0.0429,-0.92358 -0.0779,-1.07829 -0.035,-0.15471 -0.32805,-1.6315 -0.65128,-3.28175 -0.32323,-1.65025 -0.83479,-3.95376 -1.1368,-5.11891 -0.302,-1.16515 -0.5491,-2.28714 -0.5491,-2.49332 0,-0.20618 -0.21412,-1.03863 -0.47582,-1.84989 -0.2617,-0.81126 -0.54598,-1.88335 -0.63172,-2.38242 -0.23941,-1.39352 -3.32611,-11.21145 -4.530253,-14.40945 -0.31068,-0.82513 -0.72953,-1.96437 -0.93078,-2.53164 -0.20125,-0.56727 -0.52955,-1.38913 -0.72957,-1.82636 -0.200019,-0.43722 -0.36367,-0.8741 -0.36367,-0.97083 0,-0.0967 -0.294325,-0.8153 -0.654056,-1.59683 -0.359732,-0.78152 -0.654057,-1.50124 -0.654057,-1.59937 0,-0.36682 -4.971842,-10.60887 -6.603531,-13.60334 -0.60372,-1.10795 -0.78576,-1.43167 -2.367929,-4.21094 -0.437721,-0.76891 -0.910767,-1.51333 -1.051215,-1.65427 -0.140448,-0.14094 -0.25536,-0.33266 -0.25536,-0.42604 0,-0.23719 -3.000605,-4.94639 -3.200538,-5.02298 -0.08975,-0.0344 -0.163182,-0.17603 -0.163182,-0.31478 0,-0.13875 -0.105117,-0.36504 -0.233592,-0.50287 -0.439313,-0.4713 -2.441855,-3.52984 -2.362959,-3.60901 0.04331,-0.0435 0.83446,0.60029 1.758112,1.43055 4.684908,4.21124 9.92481,7.71354 14.106447,9.42864 0.668072,0.274 1.492177,0.62546 1.831344,0.78102 0.648756,0.29754 2.023706,0.77448 4.301819,1.4922 l 1.36788,0.43095 -1.19057,-1.16158 c -0.80126,-0.78174 -1.40133,-1.59083 -1.83507,-2.47428 -0.626273,-1.27557 -0.644503,-1.37635 -0.644503,-3.56304 0,-2.11842 0.0326,-2.31631 0.555513,-3.37552 1.52153,-3.08186 4.46927,-4.9695 7.76036,-4.9695 7.5476,0 11.1717,9.204 5.71524,14.51478 -0.62526,0.60857 -1.05275,1.06327 -0.94997,1.01044 0.10278,-0.0528 1.27413,-0.45125 2.60299,-0.8854 1.32886,-0.43415 2.73407,-0.95214 3.12268,-1.15109 0.38862,-0.19895 0.78939,-0.36173 0.89061,-0.36173 0.22199,0 3.0389,-1.37671 4.59612,-2.24627 3.54326,-1.97856 7.99311,-5.28342 11.09593,-8.24087 0.44984,-0.42876 0.85703,-0.74028 0.90487,-0.69228 0.0478,0.048 -0.3132,0.6632 -0.80231,1.36708 -1.17451,1.69025 -1.33275,1.92761 -2.60339,3.90519 -0.59644,0.92826 -1.32373,2.04887 -1.6162,2.49023 -0.29247,0.44137 -0.53177,0.83601 -0.53177,0.877 0,0.041 -0.43318,0.77691 -0.96263,1.63539 -1.19572,1.93882 -2.40109,4.04406 -2.40109,4.19362 0,0.0619 -0.25227,0.48057 -0.56062,0.9303 -0.30834,0.44973 -0.56062,0.91203 -0.56062,1.02732 0,0.1153 -0.29432,0.67135 -0.65405,1.23567 -0.35973,0.56433 -0.65406,1.11047 -0.65406,1.21366 0,0.10318 -0.21023,0.52181 -0.46718,0.93027 -0.25695,0.40847 -0.46719,0.84049 -0.46719,0.96006 0,0.11957 -0.25228,0.62884 -0.56062,1.13172 -0.30834,0.50287 -0.56062,1.01152 -0.56062,1.13033 0,0.11881 -0.29273,0.75046 -0.65052,1.40365 -0.35778,0.65319 -0.60865,1.18763 -0.55747,1.18763 0.0512,0 -0.13456,0.44303 -0.41274,0.98452 -0.58292,1.13465 -2.17954,4.96503 -3.2635,7.82932 -0.40984,1.08298 -0.81717,2.13782 -0.90518,2.34411 -0.14809,0.34711 -0.46705,1.22907 -1.59372,4.40692 -0.39676,1.11907 -0.77026,2.28946 -2.2442,7.03232 -0.28847,0.92826 -0.58699,1.98311 -0.66336,2.3441 -0.0764,0.361 -0.32131,1.28926 -0.54428,2.06282 -0.22298,0.77355 -0.47704,1.74401 -0.56457,2.15658 -0.0875,0.41256 -0.33906,1.42521 -0.55895,2.25034 -0.21988,0.82512 -0.46961,1.87997 -0.55496,2.3441 -0.0853,0.46414 -0.36613,1.81434 -0.62397,3.00046 -0.25784,1.18612 -0.666,3.23219 -0.90703,4.54683 -0.28442,1.5513 -0.52022,2.39051 -0.67182,2.39099 -0.14812,4.7e-4 -0.23883,-0.29091 -0.24789,-0.79626 z"
         id="path54" /></g></g></svg>
